<svg width="25" height="25" viewBox="0 0 25 25" fill="none" xmlns="http://www.w3.org/2000/svg">
<path d="M16.5 12.5C16.5 13.2911 16.2654 14.0645 15.8259 14.7223C15.3864 15.3801 14.7616 15.8928 14.0307 16.1955C13.2998 16.4983 12.4956 16.5775 11.7196 16.4231C10.9437 16.2688 10.231 15.8878 9.67157 15.3284C9.11216 14.769 8.7312 14.0563 8.57686 13.2804C8.42252 12.5044 8.50173 11.7002 8.80448 10.9693C9.10723 10.2384 9.61992 9.61365 10.2777 9.17412C10.9355 8.7346 11.7089 8.5 12.5 8.5C13.5605 8.50122 14.5772 8.92304 15.3271 9.67292C16.077 10.4228 16.4988 11.4395 16.5 12.5ZM25 7V18C24.9979 19.8559 24.2597 21.6351 22.9474 22.9474C21.6351 24.2597 19.8559 24.9979 18 25H7C5.14413 24.9979 3.36489 24.2597 2.05259 22.9474C0.740295 21.6351 0.00211736 19.8559 0 18V7C0.00211736 5.14413 0.740295 3.36489 2.05259 2.05259C3.36489 0.740295 5.14413 0.00211736 7 0H18C19.8559 0.00211736 21.6351 0.740295 22.9474 2.05259C24.2597 3.36489 24.9979 5.14413 25 7ZM18.5 12.5C18.5 11.3133 18.1481 10.1533 17.4888 9.16658C16.8295 8.17988 15.8925 7.41085 14.7961 6.95672C13.6997 6.5026 12.4933 6.38378 11.3295 6.61529C10.1656 6.8468 9.09647 7.41824 8.25736 8.25736C7.41824 9.09647 6.8468 10.1656 6.61529 11.3295C6.38378 12.4933 6.5026 13.6997 6.95672 14.7961C7.41085 15.8925 8.17988 16.8295 9.16658 17.4888C10.1533 18.1481 11.3133 18.5 12.5 18.5C14.0907 18.4982 15.6158 17.8655 16.7407 16.7407C17.8655 15.6158 18.4982 14.0907 18.5 12.5ZM20.5 6C20.5 5.70333 20.412 5.41332 20.2472 5.16665C20.0824 4.91997 19.8481 4.72771 19.574 4.61418C19.2999 4.50065 18.9983 4.47094 18.7074 4.52882C18.4164 4.5867 18.1491 4.72956 17.9393 4.93934C17.7296 5.14912 17.5867 5.41639 17.5288 5.70736C17.4709 5.99834 17.5006 6.29994 17.6142 6.57403C17.7277 6.84811 17.92 7.08238 18.1666 7.2472C18.4133 7.41203 18.7033 7.5 19 7.5C19.3978 7.5 19.7794 7.34196 20.0607 7.06066C20.342 6.77936 20.5 6.39782 20.5 6Z" fill="black"/>
</svg>
