<svg width="25" height="25" viewBox="0 0 25 25" fill="none" xmlns="http://www.w3.org/2000/svg">
<path d="M25 12.5C25 15.8152 23.683 18.9946 21.3388 21.3388C18.9946 23.683 15.8152 25 12.5 25C9.18479 25 6.00537 23.683 3.66117 21.3388C1.31696 18.9946 0 15.8152 0 12.5C0 9.18479 1.31696 6.00537 3.66117 3.66117C6.00537 1.31696 9.18479 0 12.5 0C15.8152 0 18.9946 1.31696 21.3388 3.66117C23.683 6.00537 25 9.18479 25 12.5ZM12.9484 9.22813C11.7328 9.73438 9.30156 10.7812 5.65781 12.3687C5.06719 12.6031 4.75625 12.8344 4.72813 13.0594C4.68125 13.4391 5.15781 13.5891 5.80625 13.7937L6.07969 13.8797C6.71719 14.0875 7.57656 14.3297 8.02187 14.3391C8.42812 14.3484 8.87969 14.1828 9.37813 13.8391C12.7828 11.5406 14.5406 10.3797 14.65 10.3547C14.7281 10.3359 14.8375 10.3141 14.9094 10.3797C14.9828 10.4438 14.975 10.5672 14.9672 10.6C14.9203 10.8016 13.05 12.5391 12.0828 13.4391C11.7812 13.7203 11.5672 13.9188 11.5234 13.9641C11.4271 14.0625 11.3292 14.1594 11.2297 14.2547C10.6359 14.8266 10.1922 15.2547 11.2531 15.9547C11.7641 16.2922 12.1734 16.5687 12.5813 16.8469C13.025 17.15 13.4688 17.4516 14.0437 17.8297C14.1891 17.9234 14.3297 18.025 14.4656 18.1219C14.9828 18.4906 15.45 18.8219 16.0234 18.7687C16.3578 18.7375 16.7031 18.425 16.8781 17.4875C17.2922 15.2734 18.1063 10.4781 18.2938 8.50156C18.3052 8.33725 18.2984 8.17218 18.2734 8.00937C18.2587 7.878 18.1951 7.75697 18.0953 7.67031C17.9531 7.57217 17.7837 7.52133 17.6109 7.525C17.1422 7.53281 16.4187 7.78438 12.9484 9.22813Z" fill="black"/>
</svg>
